<svg xmlns="http://www.w3.org/2000/svg" width="1400" height="820" viewBox="0 0 1400 820">
  <defs>
    <linearGradient id="bg" x1="0" y1="0" x2="1" y2="1">
      <stop offset="0" stop-color="#0d1117"/>
      <stop offset="1" stop-color="#111827"/>
    </linearGradient>
    <filter id="shadow" x="-20%" y="-20%" width="140%" height="140%">
      <feDropShadow dx="0" dy="8" stdDeviation="10" flood-color="#000" flood-opacity=".28"/>
    </filter>
    <marker id="arrow" viewBox="0 0 10 10" refX="9" refY="5"
            markerWidth="7" markerHeight="7" orient="auto-start-reverse">
      <path d="M 0 0 L 10 5 L 0 10 z" fill="#58a6ff"/>
    </marker>
    <style>
      .title { font: 700 30px Inter, Arial, sans-serif; fill: #f0f6fc; }
      .subtitle { font: 16px Inter, Arial, sans-serif; fill: #8b949e; }
      .label { font: 700 18px Inter, Arial, sans-serif; fill: #f0f6fc; }
      .small { font: 14px Inter, Arial, sans-serif; fill: #c9d1d9; }
      .mono { font: 14px Consolas, monospace; fill: #8b949e; }
      .box { stroke-width: 1.5; rx: 14; filter: url(#shadow); }
      .flow { fill: none; stroke: #58a6ff; stroke-width: 2.5; marker-end: url(#arrow); }
    </style>
  </defs>

  <rect width="1400" height="820" rx="24" fill="url(#bg)"/>
  <text x="56" y="64" class="title">MiniCode v0.2.1 — Controlled Agent Architecture</text>
  <text x="56" y="94" class="subtitle">Natural-language task → safe local context → structured model response → task memory</text>

  <rect x="52" y="132" width="1296" height="114" class="box" fill="#161b22" stroke="#30363d"/>
  <text x="78" y="166" class="label">Entry &amp; orchestration</text>
  <rect x="82" y="184" width="180" height="42" class="box" fill="#1f2937" stroke="#58a6ff"/>
  <text x="172" y="211" text-anchor="middle" class="small">minicode CLI / main.py</text>
  <path d="M262 205 H330" class="flow"/>
  <rect x="332" y="184" width="190" height="42" class="box" fill="#1f2937" stroke="#58a6ff"/>
  <text x="427" y="211" text-anchor="middle" class="small">Task Session</text>
  <path d="M522 205 H590" class="flow"/>
  <rect x="592" y="184" width="190" height="42" class="box" fill="#1f2937" stroke="#58a6ff"/>
  <text x="687" y="211" text-anchor="middle" class="small">QueryLoop</text>
  <path d="M782 205 H850" class="flow"/>
  <rect x="852" y="184" width="190" height="42" class="box" fill="#1f2937" stroke="#58a6ff"/>
  <text x="947" y="211" text-anchor="middle" class="small">ResponseFormatter</text>
  <path d="M1042 205 H1110" class="flow"/>
  <rect x="1112" y="184" width="190" height="42" class="box" fill="#1f2937" stroke="#58a6ff"/>
  <text x="1207" y="211" text-anchor="middle" class="small">CLI Answer</text>

  <rect x="52" y="276" width="398" height="350" class="box" fill="#122033" stroke="#1f6feb"/>
  <text x="78" y="314" class="label">Decision &amp; context</text>
  <rect x="82" y="342" width="338" height="68" class="box" fill="#172b4d" stroke="#58a6ff"/>
  <text x="104" y="370" class="label">SkillRouter</text>
  <text x="104" y="392" class="small">4 deterministic skills + priority rules</text>
  <path d="M251 410 V449" class="flow"/>
  <rect x="82" y="452" width="338" height="68" class="box" fill="#172b4d" stroke="#58a6ff"/>
  <text x="104" y="480" class="label">ContextBuilder</text>
  <text x="104" y="502" class="small">Tool summaries · snippets · fixed truncation</text>
  <path d="M251 520 V559" class="flow"/>
  <rect x="82" y="562" width="338" height="42" class="box" fill="#172b4d" stroke="#58a6ff"/>
  <text x="251" y="588" text-anchor="middle" class="small">LLMClient · Mock / OpenAI-compatible</text>

  <rect x="482" y="276" width="398" height="350" class="box" fill="#10281f" stroke="#238636"/>
  <text x="508" y="314" class="label">Read-only tool boundary</text>
  <rect x="512" y="342" width="338" height="56" class="box" fill="#153b2b" stroke="#3fb950"/>
  <text x="681" y="376" text-anchor="middle" class="label">ToolExecutor</text>
  <path d="M681 398 V433" class="flow"/>
  <rect x="512" y="436" width="338" height="68" class="box" fill="#153b2b" stroke="#3fb950"/>
  <text x="534" y="464" class="label">PermissionChecker</text>
  <text x="534" y="486" class="small">resolve path · workspace boundary · blacklist</text>
  <path d="M681 504 V539" class="flow"/>
  <rect x="512" y="542" width="100" height="60" class="box" fill="#153b2b" stroke="#3fb950"/>
  <text x="562" y="578" text-anchor="middle" class="small">list_files</text>
  <rect x="625" y="542" width="100" height="60" class="box" fill="#153b2b" stroke="#3fb950"/>
  <text x="675" y="578" text-anchor="middle" class="small">read_file</text>
  <rect x="738" y="542" width="112" height="60" class="box" fill="#153b2b" stroke="#3fb950"/>
  <text x="794" y="578" text-anchor="middle" class="small">search_code</text>

  <rect x="912" y="276" width="436" height="350" class="box" fill="#2b2039" stroke="#8957e5"/>
  <text x="938" y="314" class="label">Path &amp; persistence model</text>
  <rect x="942" y="342" width="376" height="104" class="box" fill="#34254a" stroke="#a371f7"/>
  <text x="966" y="374" class="label">app_root</text>
  <text x="966" y="398" class="small">MiniCode source, skills, runtime memory</text>
  <text x="966" y="422" class="mono">skills/skills.json · data/memory.json</text>
  <rect x="942" y="470" width="376" height="104" class="box" fill="#34254a" stroke="#a371f7"/>
  <text x="966" y="502" class="label">workspace</text>
  <text x="966" y="526" class="small">Current target project · read-only analysis scope</text>
  <text x="966" y="550" class="mono">list_files · read_file · search_code</text>
  <path d="M1130 574 V598" class="flow"/>
  <text x="1130" y="616" text-anchor="middle" class="small">MemoryWriter persists task metadata under app_root</text>

  <path d="M592 226 C592 258 300 245 300 276" class="flow"/>
  <path d="M687 226 V276" class="flow"/>
  <path d="M782 226 C782 258 1080 245 1080 276" class="flow"/>

  <rect x="52" y="658" width="1296" height="106" class="box" fill="#161b22" stroke="#30363d"/>
  <text x="78" y="694" class="label">Safety invariant</text>
  <text x="78" y="724" class="small">Every content-reading path passes PermissionChecker before bytes are read. Resolved paths outside workspace are denied.</text>
  <text x="78" y="750" class="mono">No shell execution · no automatic file writes · no Git operations · local failure degrades to structured output</text>
</svg>
